<?xml version="1.0" encoding="UTF-8"?>
<!DOCTYPE svg PUBLIC "-//W3C//DTD SVG 1.1//EN" "http://www.w3.org/Graphics/SVG/1.1/DTD/svg11.dtd">
<svg version="1.1" xmlns="http://www.w3.org/2000/svg" xmlns:xlink="http://www.w3.org/1999/xlink" x="0" y="0" width="110.413" height="225.159" viewBox="0, 0, 736.089, 1501.057">
  <g id="Layer_1">
    <path d="M181.521,1083.768 C179.778,1079.372 176.873,1077.073 171.421,1078.471 C175.202,1080.455 178.362,1082.111 181.521,1083.768 M282.27,1103.396 C281.557,1103.228 280.843,1103.06 280.13,1102.891 C278.928,1108.094 277.725,1113.297 276.523,1118.5 C277.302,1118.677 278.081,1118.854 278.86,1119.031 C279.997,1113.819 281.133,1108.608 282.27,1103.396 M257.35,1063.557 C249.932,1059.392 242.442,1055.835 234.018,1060.247 C226.851,1064 225.022,1066.808 225.667,1072.124 C234.722,1063.452 245.152,1060.31 257.35,1063.557 M130.224,1068.457 C144.599,1062.341 158.469,1062.013 172.825,1068.592 C163.621,1054.867 139.491,1054.803 130.224,1068.457 M237.674,1051.378 C243.314,1051.378 249.167,1050.377 254.462,1051.666 C259.529,1052.9 264.881,1055.659 268.517,1059.324 C272.148,1062.983 273.805,1068.599 276.868,1074.375 C278.072,1063.968 276.03,1056.091 267.889,1050.914 C258.953,1045.232 245.564,1045.563 237.674,1051.378 M186.269,1100.793 C186.654,1100.587 187.04,1100.382 187.426,1100.176 C186.776,1098.834 186.487,1096.905 185.417,1096.246 C177.829,1091.574 170.116,1087.101 162.349,1082.733 C161.15,1082.059 159.391,1081.85 158.018,1082.107 C151.977,1083.24 141.624,1095.168 140.572,1103.448 C147.874,1097.696 153.161,1090.453 162.568,1090.705 C171.889,1090.954 179.463,1094.794 186.269,1100.793 M123.681,1076.63 C108.418,1085.39 101.564,1102.251 106.897,1117.329 C107.154,1117.15 107.588,1117.013 107.633,1116.795 C109.873,1106.001 115.218,1097.043 123.34,1089.623 C124.239,1088.802 124.777,1087.102 124.736,1085.834 C124.641,1082.875 124.09,1079.931 123.681,1076.63 M169.086,1074.997 C158.87,1068.398 145.096,1067.328 133.714,1071.214 C125.629,1073.973 124.09,1077.398 126.965,1085.544 C133.671,1082.821 140.192,1079.321 147.152,1077.585 C154.238,1075.818 161.757,1075.788 169.086,1074.997 M261.44,1124.757 C261.134,1124.301 260.829,1123.844 260.524,1123.388 C261.544,1122.858 262.626,1122.421 263.574,1121.783 C277.846,1112.19 276.667,1110.132 266.948,1099.044 C265.753,1097.681 264.325,1096.453 262.816,1095.446 C255.275,1090.42 247.146,1088.222 237.735,1090.216 C244.742,1098.348 246.004,1101.913 244.377,1108.315 C243.597,1099.643 242.149,1096.184 237.294,1092.649 C236.094,1091.775 234.244,1091.051 232.867,1091.286 C224.601,1092.697 219.127,1098.18 217.459,1106.427 C215.565,1115.799 213.755,1125.187 211.854,1134.845 C220.501,1134.845 228.486,1134.562 236.438,1134.96 C240.665,1135.171 245.969,1135.251 248.79,1137.694 C254.663,1142.779 258.778,1139.73 263.19,1136.555 C266.274,1134.336 269.042,1131.642 271.776,1128.98 C275.763,1125.1 275.802,1120.237 275.144,1115.234 C270.441,1118.502 265.94,1121.63 261.44,1124.757 M212.086,1046.738 C212.483,1045.339 212.893,1044.08 213.195,1042.795 C216.85,1027.247 220.243,1011.632 224.173,996.154 C242.479,924.056 260.364,851.844 279.508,779.969 C295.447,720.126 314.282,661.107 335.685,602.981 C348.27,568.801 361.174,534.66 375.856,501.348 C394.235,459.652 414.597,418.83 434.048,377.605 C434.744,376.13 434.862,374.383 435.249,372.763 C434.729,372.473 434.209,372.184 433.689,371.895 C432.564,373.226 431.143,374.403 430.355,375.911 C401.126,431.862 374.546,489.038 350.861,547.563 C327.37,605.607 306.627,664.619 288.121,724.429 C286.707,728.997 286.523,734.909 279.029,732.5 C279.205,734.772 279.024,736.48 279.54,737.942 C280.029,739.329 281.248,740.458 282.583,742.305 C252.473,842.05 227.406,943.896 204.345,1046.738 z M151.356,1132.275 C141.29,1127.017 137.3,1118.29 137.126,1107.376 C137.092,1105.256 137.007,1103.137 136.946,1101.018 C141.389,1094.685 145.832,1088.351 151.054,1080.907 C143.061,1084.322 135.807,1087.421 127.528,1090.958 C130.897,1094.874 133.218,1097.572 135.539,1100.269 C132.622,1097.993 129.705,1095.716 126.495,1093.212 C119.604,1098.746 114.622,1105.906 111.915,1114.785 C109.128,1123.923 111.271,1132.716 114.414,1140.991 C120.31,1156.515 138.728,1170.012 156.854,1167.165 C146.607,1164.706 138.118,1160.96 138.434,1149.876 C138.691,1140.853 145.688,1137.074 153.757,1134.957 C152.792,1133.886 151.982,1132.989 151.164,1132.085 C160.03,1137.126 169.64,1133.898 179.123,1135.161 C181.081,1126.568 182.998,1118.49 184.68,1110.363 C184.899,1109.303 184.178,1107.788 183.442,1106.832 C177.86,1099.589 170.214,1096.403 161.281,1096.323 C152.232,1096.241 140.942,1106.318 143.523,1120.149 C140.724,1115.18 140.67,1114.277 141.928,1103.057 C140.623,1103.909 139.056,1105.299 139.248,1106.374 C140.255,1111.994 141.015,1117.833 143.243,1122.999 C144.792,1126.59 148.572,1129.217 151.356,1132.275 M262.819,1091.27 C267.464,1096.561 272.108,1101.851 276.889,1107.296 C280.694,1099.026 281.232,1090.65 276.088,1082.974 C271.504,1085.852 267.079,1088.631 262.654,1091.409 C263.17,1090.658 263.521,1089.513 264.228,1089.216 C269.678,1086.924 270.703,1081.882 270.35,1077.219 C270.175,1074.918 266.884,1072.107 264.349,1070.897 C259.919,1068.783 255.079,1067.054 250.24,1066.365 C239.372,1064.818 226.066,1074.044 222.974,1084.607 C226.353,1085.335 230.084,1087.364 233.043,1086.558 C243.863,1083.612 253.358,1086.764 262.819,1091.27 M43.248,1473.742 C21.727,1447.331 8.975,1417.083 2.598,1384.011 C-0.322,1368.863 -1.156,1353.624 2.063,1338.352 C7.428,1312.893 22.437,1298.023 47.928,1293.064 C71.188,1288.54 93.381,1281.286 112.866,1267.298 C138.966,1248.561 152.778,1222.766 156.033,1191.103 C156.742,1184.208 156.719,1177.238 157.038,1170.189 C152.28,1169.607 148.267,1169.466 144.422,1168.585 C127.919,1164.804 116.366,1154.783 110.416,1139.127 C107.133,1130.489 104.785,1121.312 103.423,1112.168 C100.987,1095.811 107.252,1082.91 121.119,1073.66 C123.63,1071.985 125.856,1069.586 127.584,1067.086 C133.789,1058.104 148.345,1052.865 160.231,1055.663 C161.982,1056.075 163.711,1056.582 166.089,1056.25 L154.675,1046.316 L155.953,1044.813 C158.939,1047.348 161.923,1049.885 164.911,1052.418 C168.039,1055.07 171.17,1057.717 174.13,1060.223 C170.223,1054.288 166.463,1047.666 161.802,1041.754 C157.204,1035.924 151.693,1030.813 146.728,1025.227 C157.549,1032.355 165.916,1041.984 173.778,1052.348 C172.903,1048.231 172.029,1044.114 171.155,1039.997 C171.385,1039.913 171.615,1039.828 171.845,1039.743 C175.336,1045.449 178.827,1051.154 182.318,1056.859 C182.596,1056.716 182.873,1056.572 183.15,1056.429 C182.72,1055.241 182.351,1054.027 181.849,1052.871 C179.726,1047.986 177.661,1043.072 175.397,1038.253 C167.627,1021.718 164.492,1004.152 163.131,986.081 C160.363,949.306 159.258,912.492 162.19,875.721 C164.355,848.581 167.858,821.547 170.764,794.466 C171.303,794.39 171.842,794.315 172.381,794.239 C178.937,810.237 185.493,826.235 192.049,842.233 C192.419,842.104 192.789,841.975 193.159,841.846 C189.635,826.121 186.108,810.397 182.59,794.671 C180.808,786.709 179.197,778.705 177.231,770.79 C174.668,760.473 177.861,750.572 179.463,740.671 C187.306,692.184 195.577,643.767 203.659,595.319 C204.37,591.059 204.808,586.753 205.892,582.29 C209.347,618.543 221.437,651.311 244.311,679.952 C244.633,679.58 244.988,679.316 244.945,679.198 C240.077,665.857 235.829,652.243 230.141,639.26 C219.715,615.462 217.224,590.823 219.889,565.311 C220.468,559.767 222.649,555.296 227.285,552.368 C235.502,547.178 237.727,540.101 236.594,530.566 C234.81,515.544 237.934,500.784 243.971,487.166 C253.607,465.43 264.737,444.362 274.746,422.784 C297.305,374.154 330.969,332.783 361.589,289.439 C373.597,272.442 386.69,256.21 399.321,239.653 C400.826,237.68 402.535,235.863 404.725,234.006 C399.614,245.795 399.589,257.09 407.676,268.482 C408.955,246.486 417.325,227.527 428.047,209.499 C438.832,191.365 451.396,174.713 470.001,162.185 C468.74,167.71 467.699,172.275 466.658,176.84 C478.89,151.229 499.314,133.018 520.498,115.78 C572.156,73.744 628.068,38.301 688.933,11.13 C701.065,5.714 714.718,3.669 727.722,0.272 C729.87,-0.289 732.29,0.193 736.089,0.193 C733.803,3.553 732.26,6.14 730.41,8.486 C717.62,24.698 704.188,40.44 692.069,57.138 C674.218,81.734 660.056,108.556 647.08,136.018 C645.17,140.061 642.144,143.836 638.875,146.932 C626.661,158.499 614.082,169.679 601.753,181.126 C598.74,183.924 596.153,187.181 594.04,191.038 C607.832,180.829 621.623,170.621 635.809,160.12 C635.892,161.253 636.093,161.773 635.934,162.136 C619.797,198.995 608.771,237.544 597.541,276.079 C581.66,330.57 558.918,382.389 534.593,433.573 C525.456,452.799 517.473,472.591 509.429,492.315 C496.042,525.139 475.329,552.014 446.077,572.19 C445.538,572.562 445.075,573.043 444.858,573.797 C470.096,563.178 489.079,545.381 503.654,522.206 C489.537,580.422 471.541,637.251 449.041,693.826 C450.978,692.094 452.234,690.989 453.471,689.861 C454.804,688.645 456.118,687.408 458.139,686.604 C455.465,694.411 452.476,702.127 450.172,710.042 C441.054,741.361 432.574,772.871 423.055,804.066 C412.529,838.566 399.051,871.915 379.137,902.221 C360.074,931.23 334.923,953.946 305.583,972.39 C290.376,981.95 275.918,992.703 261.148,1002.955 C259.754,1003.923 258.549,1005.164 257.696,1006.855 C264.815,1002.473 271.933,998.091 279.052,993.709 C279.502,994.219 279.953,994.73 280.403,995.241 C279.028,996.18 277.538,996.988 276.296,998.079 C262.931,1009.822 251.802,1023.483 242.093,1038.329 C240.922,1040.118 240.319,1042.279 239.023,1045.255 C241.961,1044.883 243.575,1044.442 245.164,1044.519 C250.924,1044.801 256.944,1044.305 262.377,1045.838 C274.743,1049.327 280.834,1060.284 278.827,1072.984 C278.497,1075.077 278.816,1077.603 279.72,1079.509 C288.546,1098.119 287.996,1115.587 273.692,1131.417 C271.386,1133.969 268.656,1136.231 265.818,1138.185 C262.832,1140.241 259.482,1141.766 256.299,1143.519 C259.456,1154.769 255.358,1162.689 244.281,1165.62 C240.786,1166.545 239.894,1168.029 239.77,1171.339 C237.93,1220.2 259.379,1262.388 313.274,1282.972 C324.414,1287.226 336.242,1289.676 347.742,1292.995 C352.534,1294.378 357.441,1295.504 362.053,1297.354 C383.942,1306.131 392.725,1323.662 394,1346.028 C395.47,1371.819 389.613,1396.308 380.529,1420.169 C373.255,1439.275 363.493,1457.022 349.672,1474.199 C350.529,1474.549 351.676,1474.683 352.299,1475.326 C355.537,1478.667 355.863,1482.697 354.547,1486.937 C353.205,1491.259 349.759,1492.408 345.674,1492.932 C303.48,1498.34 261.092,1500.966 218.581,1501.045 C186.09,1501.105 153.567,1501.009 121.118,1499.598 C97.203,1498.557 73.375,1495.381 49.528,1492.954 C39.499,1491.933 36.135,1483.579 42.157,1475.361 C42.537,1474.842 42.878,1474.293 43.248,1473.742" fill="#000000"/>
  </g>
</svg>
