<?xml version="1.0" encoding="UTF-8"?>
<!DOCTYPE svg PUBLIC "-//W3C//DTD SVG 1.1//EN" "http://www.w3.org/Graphics/SVG/1.1/DTD/svg11.dtd">
<svg version="1.1" xmlns="http://www.w3.org/2000/svg" xmlns:xlink="http://www.w3.org/1999/xlink" x="0" y="0" width="510" height="145" viewBox="0, 0, 510, 145">
  <g id="Layer_1">
    <path d="M94.074,64.225 Q94.389,64.225 95.019,64.38 Q95.648,64.534 95.648,65.153 Q95.648,66.391 94.074,66.856 Q92.5,67.32 89.352,68.094 Q86.204,68.867 81.324,70.105 Q76.444,71.343 70.148,74.128 L48.11,103.529 Q42.758,110.647 35.989,119.003 Q29.22,127.359 18.831,140.358 Q17.257,141.905 15.526,143.453 Q13.794,145 11.275,145 Q6.868,145 5.609,142.369 Q4.349,139.739 4.349,137.572 Q4.349,129.526 9.544,120.706 Q14.739,111.885 22.294,103.684 Q29.85,95.483 38.508,88.519 Q47.165,81.556 53.777,77.533 Q55.036,76.914 55.351,76.604 L58.814,72.272 Q60.388,70.105 61.805,68.094 Q63.222,66.082 64.481,64.225 Q57.24,66.701 49.054,68.867 Q40.869,71.034 32.369,71.034 L31.739,71.034 Q31.424,70.724 31.424,70.105 Q30.795,69.177 31.739,69.177 L33.628,68.558 Q39.295,66.391 46.536,63.451 Q53.777,60.511 62.277,55.559 L66.685,53.084 Q69.203,51.536 71.879,49.37 Q74.555,47.203 77.074,45.656 L77.703,45.037 Q80.222,43.18 82.741,41.014 Q85.259,38.847 88.722,38.847 Q90.296,38.847 92.028,39.621 Q93.759,40.395 93.445,41.942 Q93.13,42.871 91.556,45.037 Q89.982,47.203 88.407,49.37 L74.24,68.558 Q79.278,67.01 84.63,65.927 Q89.982,64.844 94.074,64.225 z M45.277,90.222 Q39.61,95.483 34.258,101.208 Q28.906,106.934 24.498,113.433 Q21.35,118.075 18.831,123.336 Q16.313,128.597 14.109,131.383 Q19.776,123.955 27.332,114.825 Q34.887,105.696 45.277,90.222 z M105.093,12.851 Q106.667,14.089 106.667,14.708 Q106.667,15.636 105.723,16.565 L105.408,17.184 Q105.408,17.493 105.723,17.803 L105.723,18.112 Q105.723,19.04 104.778,20.124 Q103.834,21.207 102.889,21.826 L99.111,24.302 L96.593,19.659 Q95.334,17.493 95.334,15.946 Q95.334,15.017 95.648,14.243 Q95.963,13.47 96.278,12.541 L96.908,11.303 Q97.223,11.303 97.223,10.994 Q97.223,10.684 97.537,10.375 L98.167,9.756 L98.797,9.756 Q99.111,9.756 100.371,10.375 Q101,10.994 102.26,11.613 Q103.519,12.232 105.093,12.851 z" fill="#FFFFFF"/>
    <path d="M135.538,64.519 Q136.49,64.519 136.49,65.209 Q136.49,64.289 136.371,65.094 Q136.252,65.899 134.704,67.51 Q133.157,69.121 129.704,71.076 Q126.251,73.032 119.822,74.413 Q116.489,75.103 114.584,73.953 Q112.679,72.802 111.727,71.191 Q110.774,69.581 110.655,67.97 Q110.536,66.359 111.25,65.669 Q107.917,68.89 103.869,71.997 Q99.821,75.103 93.868,75.103 Q91.487,75.103 89.463,73.032 Q87.439,70.961 87.439,68.2 Q87.439,64.519 89.701,60.492 Q91.963,56.465 94.821,53.244 Q97.916,49.332 102.202,45.651 L102.44,45.421 Q104.107,45.421 106.25,46.111 Q108.393,46.801 108.869,48.642 Q107.917,50.253 106.726,51.863 Q105.536,53.474 103.869,55.315 Q103.393,55.775 102.083,57.386 Q100.773,58.996 99.107,61.067 Q97.44,63.138 96.249,65.209 Q95.059,67.28 95.059,68.43 L95.297,68.43 L96.725,68.43 Q98.392,68.2 101.011,66.705 Q103.631,65.209 106.488,62.908 Q109.345,60.607 112.203,58.076 Q115.06,55.545 117.441,53.244 Q119.584,50.943 120.656,49.447 Q121.727,47.952 123.632,46.341 Q124.823,45.421 127.085,46.686 Q129.347,47.952 129.347,48.872 Q129.347,50.023 128.632,51.173 Q127.918,52.324 127.204,53.704 Q122.442,61.067 119.941,64.174 Q117.441,67.28 117.441,68.43 Q118.156,69.121 119.584,69.121 Q120.299,69.121 122.799,68.66 Q125.299,68.2 128.156,67.51 Q131.014,66.82 133.157,66.014 Q135.3,65.209 135.3,64.519 z" fill="#FFFFFF"/>
    <path d="M172.921,64.979 Q173.636,64.979 173.636,65.439 Q173.636,65.669 173.16,66.129 Q173.16,66.359 171.85,67.51 Q170.54,68.66 168.516,70.041 Q166.492,71.421 163.873,72.457 Q161.254,73.492 158.158,73.492 Q154.825,73.492 153.634,72.342 Q150.777,74.183 148.158,74.758 Q145.538,75.333 142.919,75.333 Q137.443,75.333 135.181,73.492 Q132.919,71.652 132.442,69.811 Q131.014,69.811 129.109,70.386 Q127.204,70.961 125.299,71.421 Q123.394,71.882 121.489,71.882 Q119.584,71.882 118.632,70.501 Q118.632,70.271 118.751,70.156 Q118.87,70.041 120.06,69.581 Q125.775,67.74 130.895,64.749 Q136.014,61.757 140.3,58.536 Q144.586,55.315 147.92,52.209 Q151.253,49.102 153.158,47.261 Q153.634,46.111 154.23,44.845 Q154.825,43.58 156.254,43.58 Q157.444,43.58 159.587,44.5 Q161.73,45.421 161.73,46.111 Q161.254,47.952 161.611,49.217 Q161.968,50.483 162.683,53.704 Q163.873,58.306 162.683,61.757 Q161.492,65.209 158.158,68.89 L158.397,68.89 L158.873,68.89 Q161.968,68.89 163.873,68.545 Q165.778,68.2 167.207,67.625 Q168.635,67.05 169.826,66.359 Q171.017,65.669 172.921,64.979 z M155.539,56.465 Q152.206,59.226 147.443,62.793 Q142.681,66.359 135.062,68.89 Q136.728,70.731 140.3,70.731 Q142.205,70.731 144.824,69.696 Q147.443,68.66 149.825,67.05 Q152.206,65.439 153.872,63.253 Q155.539,61.067 155.539,58.996 z" fill="#FFFFFF"/>
    <path d="M184.589,67.51 Q183.875,69.351 186.494,69.351 Q189.351,69.351 192.566,68.775 Q195.78,68.2 198.518,67.395 Q201.257,66.59 203.043,65.899 Q204.828,65.209 205.067,64.979 Q205.543,64.519 206.614,65.209 Q207.686,65.899 207.21,66.59 Q207.21,67.05 206.019,67.51 Q205.543,67.97 205.067,68.2 Q205.067,68.2 203.4,69.121 Q201.733,70.041 198.995,71.076 Q196.256,72.112 192.685,73.032 Q189.113,73.953 185.065,73.953 L184.351,73.953 Q182.922,73.953 180.898,72.802 Q178.874,71.652 178.874,69.811 Q178.874,67.28 180.065,64.749 Q181.255,62.218 182.446,59.687 L182.446,59.457 Q182.684,59.226 182.684,59.111 Q182.684,58.996 182.922,58.766 Q181.255,59.917 178.517,61.988 Q175.779,64.058 173.16,65.899 Q170.54,67.74 168.397,68.66 Q166.254,69.581 165.778,68.43 Q165.778,67.97 166.016,67.51 Q167.445,66.82 170.778,64.058 Q174.112,61.297 178.398,57.156 Q182.684,53.014 187.446,47.837 Q192.209,42.66 196.971,37.137 Q188.399,37.137 179.946,37.022 Q171.493,36.907 164.468,36.907 Q157.444,36.907 152.801,36.792 Q148.158,36.677 147.205,36.677 L146.967,36.677 Q146.729,36.447 145.658,35.182 Q144.586,33.916 144.586,31.615 Q144.586,30.004 145.181,29.774 Q145.777,29.544 146.967,29.314 L147.205,29.314 Q148.872,29.314 151.372,29.314 Q153.872,29.314 159.468,29.429 Q165.064,29.544 174.945,29.774 Q184.827,30.004 201.495,30.695 Q205.543,25.172 209.115,20.57 Q212.686,15.969 215.067,13.438 Q216.258,11.597 217.091,10.906 Q217.925,10.216 218.401,9.756 Q218.163,9.756 219.115,9.871 Q220.068,9.986 221.258,10.331 Q222.449,10.676 223.401,11.252 Q224.354,11.827 224.354,12.747 Q224.354,14.128 223.639,15.048 Q222.449,16.659 219.949,20.11 Q217.448,23.562 211.258,31.615 Q227.687,32.766 235.664,33.571 Q243.641,34.376 246.736,34.836 Q249.832,35.297 249.713,35.642 Q249.594,35.987 249.594,36.217 Q249.355,36.217 249.355,36.447 Q248.879,36.907 248.879,36.907 L248.641,36.907 Q248.165,36.907 237.926,37.022 Q227.687,37.137 206.733,37.137 Q204.114,39.668 200.9,43.35 Q197.685,47.031 194.59,51.288 Q191.494,55.545 188.756,59.802 Q186.018,64.058 184.589,67.51 z" fill="#FFFFFF"/>
    <path d="M319.081,67.549 Q321.231,67.549 320.156,69.027 Q319.081,70.505 316.009,72.279 Q312.938,74.053 309.098,75.678 Q305.259,77.304 302.495,77.304 Q300.038,77.304 297.58,77.009 Q295.123,76.713 292.973,75.235 Q287.444,86.468 278.537,99.919 Q269.63,113.369 259.187,125.194 Q256.73,128.15 253.658,131.55 Q250.587,134.949 247.208,138.053 Q243.829,141.157 240.297,143.079 Q236.765,145 233.693,145 Q230.008,144.704 228.318,142.044 Q226.629,139.383 227.857,136.132 Q229.7,130.219 233.386,124.898 Q237.072,119.577 240.758,113.665 Q244.444,107.753 247.822,102.875 Q251.201,97.997 254.426,93.563 Q257.651,89.129 260.876,84.399 Q264.101,79.669 268.094,74.348 Q267.48,74.939 266.251,75.531 Q265.33,76.122 263.487,76.565 Q261.644,77.009 259.647,77.452 Q257.651,77.896 256.115,78.043 Q254.579,78.191 254.272,77.896 Q252.429,77.896 251.201,76.565 Q249.972,75.235 249.512,73.757 Q249.051,72.279 248.897,70.653 Q248.744,69.027 249.051,68.436 Q252.122,60.454 256.73,55.281 Q261.337,50.108 266.558,47.004 Q271.78,43.9 276.848,42.717 Q281.916,41.535 285.602,41.535 Q288.059,42.126 288.827,43.013 Q289.594,43.9 289.902,45.378 Q291.745,43.309 292.666,41.831 L294.509,41.239 Q296.352,40.648 298.195,40.648 Q299.73,40.648 301.266,41.092 Q302.802,41.535 302.802,43.013 Q302.802,43.604 302.188,44.639 Q301.573,45.674 300.959,46.856 Q299.73,48.334 298.963,49.517 Q298.195,50.699 297.273,51.881 Q296.352,54.246 296.045,57.794 Q295.737,61.341 296.659,65.48 Q297.58,67.845 299.116,69.175 Q300.652,70.505 305.566,70.505 Q306.795,70.505 308.945,70.062 Q311.095,69.618 313.245,69.027 Q315.395,68.436 316.931,67.992 Q318.466,67.549 318.774,67.549 z M261.03,69.914 Q266.558,68.14 270.551,65.923 Q274.544,63.706 277.309,61.046 Q280.073,58.385 281.916,55.872 Q283.759,53.36 285.602,51.29 L283.452,51.29 Q282.837,51.29 279.459,52.177 Q276.08,53.064 271.933,55.133 Q267.787,57.203 263.64,61.046 Q259.494,64.889 257.651,70.505 Q258.572,70.505 261.03,69.914 z M266.558,106.57 Q274.237,97.11 280.226,88.538 Q286.216,79.965 289.902,72.87 Q288.366,71.392 287.752,69.471 Q287.137,67.549 286.83,66.071 Q282.53,71.983 276.387,80.26 Q270.244,88.538 261.951,100.362 L249.665,117.508 Q248.129,119.873 246.286,122.386 Q244.444,124.898 242.601,127.263 L242.601,127.559 L237.993,134.654 Q239.529,134.062 242.754,131.254 Q245.979,128.446 249.972,124.455 Q253.965,120.464 258.265,115.734 Q262.565,111.004 266.558,106.57 z" fill="#FFFFFF"/>
    <path d="M351.982,64.519 Q352.934,64.519 352.934,65.209 Q352.934,64.289 352.815,65.094 Q352.696,65.899 351.149,67.51 Q349.601,69.121 346.148,71.076 Q342.696,73.032 336.267,74.413 Q332.933,75.103 331.028,73.953 Q329.123,72.802 328.171,71.191 Q327.218,69.581 327.099,67.97 Q326.98,66.359 327.694,65.669 Q324.361,68.89 320.313,71.997 Q316.265,75.103 310.312,75.103 Q307.931,75.103 305.907,73.032 Q303.883,70.961 303.883,68.2 Q303.883,64.519 306.145,60.492 Q308.407,56.465 311.265,53.244 Q314.36,49.332 318.646,45.651 L318.884,45.421 Q320.551,45.421 322.694,46.111 Q324.837,46.801 325.313,48.642 Q324.361,50.253 323.17,51.863 Q321.98,53.474 320.313,55.315 Q319.837,55.775 318.527,57.386 Q317.218,58.996 315.551,61.067 Q313.884,63.138 312.693,65.209 Q311.503,67.28 311.503,68.43 L311.741,68.43 L313.17,68.43 Q314.836,68.2 317.456,66.705 Q320.075,65.209 322.932,62.908 Q325.79,60.607 328.647,58.076 Q331.504,55.545 333.885,53.244 Q336.028,50.943 337.1,49.447 Q338.171,47.952 340.076,46.341 Q341.267,45.421 343.529,46.686 Q345.791,47.952 345.791,48.872 Q345.791,50.023 345.077,51.173 Q344.362,52.324 343.648,53.704 Q338.886,61.067 336.386,64.174 Q333.885,67.28 333.885,68.43 Q334.6,69.121 336.028,69.121 Q336.743,69.121 339.243,68.66 Q341.743,68.2 344.6,67.51 Q347.458,66.82 349.601,66.014 Q351.744,65.209 351.744,64.519 z" fill="#FFFFFF"/>
    <path d="M355.077,67.97 Q355.077,66.129 355.792,64.289 Q353.173,65.899 350.434,66.82 Q347.696,67.74 345.553,68.43 Q342.934,69.351 340.791,69.811 Q340.553,69.811 340.076,69.351 Q340.076,68.89 341.029,68.43 Q345.791,66.589 350.791,63.713 Q355.792,60.837 359.602,57.156 Q365.792,51.173 369.721,48.757 Q373.65,46.341 375.079,46.341 L375.317,46.341 L375.555,46.341 L376.031,46.801 Q376.508,46.341 377.341,46.341 Q378.174,46.341 378.651,46.341 Q383.175,46.341 385.08,49.562 Q386.984,52.784 386.984,56.005 Q386.984,61.067 384.365,65.669 Q385.08,66.129 386.627,66.244 Q388.175,66.359 389.842,66.359 Q393.652,66.359 395.676,65.669 Q397.7,64.979 397.938,64.979 Q398.89,65.439 398.89,65.899 L398.652,66.129 L397.7,66.82 Q396.509,67.74 392.58,69.005 Q388.651,70.271 383.175,70.271 L382.937,70.271 Q382.46,70.271 381.984,70.156 Q381.508,70.041 381.032,70.041 Q377.698,73.032 373.65,74.413 Q369.602,75.793 365.792,75.793 Q362.697,75.793 358.887,74.068 Q355.077,72.342 355.077,67.97 z M377.46,53.704 Q376.508,55.545 376.508,58.306 Q376.508,59.226 376.984,60.722 Q377.46,62.218 379.365,63.828 Q381.27,61.988 382.222,59.341 Q383.175,56.695 383.175,54.394 Q383.175,52.554 381.865,50.713 Q380.555,48.872 378.174,48.872 Q378.174,49.332 378.77,50.023 Q379.365,50.713 379.365,51.633 Q379.365,52.554 377.936,53.014 L377.698,53.014 Q377.698,53.244 377.579,53.359 Q377.46,53.474 377.46,53.704 z M362.935,67.28 Q362.935,67.97 363.649,68.545 Q364.364,69.121 366.983,69.121 Q368.888,69.121 370.793,68.89 Q372.698,68.66 374.365,67.51 Q371.507,65.669 370.555,62.908 Q369.602,60.147 369.602,58.306 Q369.602,58.306 368.65,59.111 Q367.697,59.917 366.388,61.182 Q365.078,62.448 364.007,64.058 Q362.935,65.669 362.935,67.28 z" fill="#FFFFFF"/>
    <path d="M408.891,67.51 Q408.176,69.351 410.796,69.351 Q413.653,69.351 416.868,68.775 Q420.082,68.2 422.82,67.395 Q425.559,66.59 427.345,65.899 Q429.13,65.209 429.368,64.979 Q429.845,64.519 430.916,65.209 Q431.988,65.899 431.512,66.59 Q431.512,67.05 430.321,67.51 Q429.845,67.97 429.368,68.2 Q429.368,68.2 427.702,69.121 Q426.035,70.041 423.297,71.076 Q420.558,72.112 416.987,73.032 Q413.415,73.953 409.367,73.953 L408.653,73.953 Q407.224,73.953 405.2,72.802 Q403.176,71.652 403.176,69.811 Q403.176,67.28 404.367,64.749 Q405.557,62.218 406.748,59.687 L406.748,59.457 Q406.986,59.226 406.986,59.111 Q406.986,58.996 407.224,58.766 Q405.557,59.917 402.819,61.988 Q400.081,64.058 397.461,65.899 Q394.842,67.74 392.699,68.66 Q390.556,69.581 390.08,68.43 Q390.08,67.97 390.318,67.51 Q391.747,66.82 395.08,64.058 Q398.414,61.297 402.7,57.156 Q406.986,53.014 411.748,47.837 Q416.51,42.66 421.273,37.137 Q412.701,37.137 404.248,37.022 Q395.795,36.907 388.77,36.907 Q381.746,36.907 377.103,36.792 Q372.46,36.677 371.507,36.677 L371.269,36.677 Q371.031,36.447 369.959,35.182 Q368.888,33.916 368.888,31.615 Q368.888,30.004 369.483,29.774 Q370.079,29.544 371.269,29.314 L371.507,29.314 Q373.174,29.314 375.674,29.314 Q378.174,29.314 383.77,29.429 Q389.366,29.544 399.247,29.774 Q409.129,30.004 425.797,30.695 Q429.845,25.172 433.416,20.57 Q436.988,15.969 439.369,13.438 Q440.56,11.597 441.393,10.906 Q442.227,10.216 442.703,9.756 Q442.465,9.756 443.417,9.871 Q444.37,9.986 445.56,10.331 Q446.751,10.676 447.703,11.252 Q448.656,11.827 448.656,12.747 Q448.656,14.128 447.941,15.048 Q446.751,16.659 444.251,20.11 Q441.75,23.562 435.559,31.615 Q451.989,32.766 459.966,33.571 Q467.943,34.376 471.038,34.836 Q474.134,35.297 474.015,35.642 Q473.896,35.987 473.896,36.217 Q473.657,36.217 473.657,36.447 Q473.181,36.907 473.181,36.907 L472.943,36.907 Q472.467,36.907 462.228,37.022 Q451.989,37.137 431.035,37.137 Q428.416,39.668 425.202,43.35 Q421.987,47.031 418.892,51.288 Q415.796,55.545 413.058,59.802 Q410.32,64.058 408.891,67.51 z" fill="#FFFFFF"/>
    <path d="M465.323,65.899 Q461.99,67.97 457.942,70.041 Q453.894,72.112 449.489,73.377 Q445.084,74.643 440.203,74.988 Q435.321,75.333 430.797,73.953 Q428.178,72.802 426.749,71.191 Q425.321,69.581 424.844,66.589 L424.844,66.359 Q424.844,62.908 427.225,59.226 Q429.607,55.545 433.297,52.554 Q436.988,49.562 441.274,47.607 Q445.56,45.651 449.132,45.651 Q451.751,45.651 454.966,46.801 Q458.18,47.952 458.18,51.633 Q458.18,55.545 455.204,58.421 Q452.227,61.297 448.06,63.138 Q443.893,64.979 439.369,65.899 Q434.845,66.82 431.75,66.82 Q431.75,67.74 433.178,68.315 Q434.607,68.89 436.393,69.121 Q438.179,69.351 439.964,69.466 Q441.75,69.581 442.703,69.581 Q446.751,69.581 451.037,68.775 Q455.323,67.97 458.656,67.05 Q462.466,65.899 463.419,65.209 Q464.371,64.519 464.609,64.519 Q465.562,64.519 465.562,65.209 L465.562,65.669 z M436.036,60.837 Q435.559,61.297 434.488,62.218 Q433.416,63.138 434.131,62.908 Q435.083,62.678 437.583,61.527 Q440.084,60.377 441.75,59.457 L444.131,57.846 Q445.56,56.695 447.108,55.315 Q448.656,53.934 449.132,53.014 Q448.656,53.014 447.108,53.589 Q445.56,54.164 444.131,54.855 L442.941,55.545 Q441.274,56.695 439.607,57.846 Q437.941,58.996 436.036,60.837 z" fill="#FFFFFF"/>
    <path d="M503.898,64.979 Q504.612,64.979 504.612,65.439 Q504.612,65.669 504.136,66.129 Q504.136,66.359 502.826,67.51 Q501.517,68.66 499.493,70.041 Q497.469,71.421 494.849,72.457 Q492.23,73.492 489.135,73.492 Q485.801,73.492 484.611,72.342 Q481.753,74.183 479.134,74.758 Q476.515,75.333 473.895,75.333 Q468.419,75.333 466.157,73.492 Q463.895,71.652 463.419,69.811 Q461.99,69.811 460.085,70.386 Q458.18,70.961 456.275,71.421 Q454.37,71.882 452.465,71.882 Q450.56,71.882 449.608,70.501 Q449.608,70.271 449.727,70.156 Q449.846,70.041 451.037,69.581 Q456.751,67.74 461.871,64.749 Q466.99,61.757 471.276,58.536 Q475.562,55.315 478.896,52.209 Q482.229,49.102 484.134,47.261 Q484.611,46.111 485.206,44.845 Q485.801,43.58 487.23,43.58 Q488.42,43.58 490.563,44.5 Q492.706,45.421 492.706,46.111 Q492.23,47.952 492.587,49.217 Q492.944,50.483 493.659,53.704 Q494.849,58.306 493.659,61.757 Q492.468,65.209 489.135,68.89 L489.373,68.89 L489.849,68.89 Q492.944,68.89 494.849,68.545 Q496.754,68.2 498.183,67.625 Q499.612,67.05 500.802,66.359 Q501.993,65.669 503.898,64.979 z M486.515,56.465 Q483.182,59.226 478.42,62.793 Q473.657,66.359 466.038,68.89 Q467.705,70.731 471.276,70.731 Q473.181,70.731 475.8,69.696 Q478.42,68.66 480.801,67.05 Q483.182,65.439 484.849,63.253 Q486.515,61.067 486.515,58.996 z" fill="#FFFFFF"/>
  </g>
</svg>
